<mxfile host="app.diagrams.net" modified="2023-11-24T01:34:00.115Z" agent="Mozilla/5.0 (Macintosh; Intel Mac OS X 10_15_7) AppleWebKit/537.36 (KHTML, like Gecko) Chrome/119.0.0.0 Safari/537.36" etag="qEeeVm4v2oNPXdHYfdqS" version="22.1.3" type="device">
  <diagram name="Page-1" id="c-Imvv090SUuobxvThen">
    <mxGraphModel dx="1712" dy="647" grid="1" gridSize="10" guides="1" tooltips="1" connect="1" arrows="1" fold="1" page="1" pageScale="1" pageWidth="850" pageHeight="1100" math="0" shadow="0">
      <root>
        <mxCell id="0" />
        <mxCell id="1" parent="0" />
        <mxCell id="XlIEOtquwnbWC1blzNur-2" value="&lt;h1&gt;&lt;span style=&quot;font-size: 14px;&quot;&gt;Indexed Tokens&lt;/span&gt;&lt;/h1&gt;&lt;p&gt;&#39;Expanded&#39; index token from DEX forest trees&lt;/p&gt;" style="text;html=1;strokeColor=none;fillColor=none;spacing=5;spacingTop=-20;whiteSpace=wrap;overflow=hidden;rounded=0;" parent="1" vertex="1">
          <mxGeometry x="-370" y="115" width="190" height="110" as="geometry" />
        </mxCell>
        <mxCell id="XlIEOtquwnbWC1blzNur-11" value="&lt;br&gt;&lt;br&gt;Composable Stable LP&lt;br&gt;(Layer 2)" style="ellipse;whiteSpace=wrap;html=1;fillColor=#d5e8d4;strokeColor=#82b366;strokeWidth=2;" parent="1" vertex="1">
          <mxGeometry x="-130" y="240" width="150" height="80" as="geometry" />
        </mxCell>
        <mxCell id="XlIEOtquwnbWC1blzNur-20" value="iCHIR from Tree 1" style="text;html=1;strokeColor=none;fillColor=none;align=center;verticalAlign=middle;whiteSpace=wrap;rounded=0;fontSize=14;fontStyle=1" parent="1" vertex="1">
          <mxGeometry x="-160" y="120" width="180" height="30" as="geometry" />
        </mxCell>
        <mxCell id="XlIEOtquwnbWC1blzNur-21" value="iCHIR from Tree 2" style="text;html=1;strokeColor=none;fillColor=none;align=center;verticalAlign=middle;whiteSpace=wrap;rounded=0;fontSize=14;fontStyle=1" parent="1" vertex="1">
          <mxGeometry x="130" y="120" width="180" height="30" as="geometry" />
        </mxCell>
        <mxCell id="XlIEOtquwnbWC1blzNur-22" value="" style="endArrow=classicThin;html=1;rounded=0;exitX=0.55;exitY=0.95;exitDx=0;exitDy=0;exitPerimeter=0;entryX=0;entryY=0;entryDx=0;entryDy=0;endFill=1;" parent="1" target="XlIEOtquwnbWC1blzNur-11" edge="1">
          <mxGeometry width="50" height="50" relative="1" as="geometry">
            <mxPoint x="-142.5" y="188" as="sourcePoint" />
            <mxPoint x="-190" y="320" as="targetPoint" />
          </mxGeometry>
        </mxCell>
        <mxCell id="XlIEOtquwnbWC1blzNur-23" value="" style="endArrow=classicThin;html=1;rounded=0;exitX=0.55;exitY=0.95;exitDx=0;exitDy=0;exitPerimeter=0;entryX=1;entryY=0;entryDx=0;entryDy=0;endFill=1;" parent="1" target="XlIEOtquwnbWC1blzNur-11" edge="1">
          <mxGeometry width="50" height="50" relative="1" as="geometry">
            <mxPoint x="37.5" y="188" as="sourcePoint" />
            <mxPoint x="90" y="310" as="targetPoint" />
          </mxGeometry>
        </mxCell>
        <mxCell id="XlIEOtquwnbWC1blzNur-24" value="" style="endArrow=classicThin;html=1;rounded=0;exitX=0.55;exitY=0.95;exitDx=0;exitDy=0;exitPerimeter=0;endFill=1;" parent="1" target="XlIEOtquwnbWC1blzNur-11" edge="1">
          <mxGeometry width="50" height="50" relative="1" as="geometry">
            <mxPoint x="-22.5" y="188" as="sourcePoint" />
            <mxPoint x="110" y="320" as="targetPoint" />
          </mxGeometry>
        </mxCell>
        <mxCell id="XlIEOtquwnbWC1blzNur-25" value="" style="endArrow=classicThin;html=1;rounded=0;exitX=0.55;exitY=0.95;exitDx=0;exitDy=0;exitPerimeter=0;entryX=0.383;entryY=0.025;entryDx=0;entryDy=0;entryPerimeter=0;endFill=1;" parent="1" target="XlIEOtquwnbWC1blzNur-11" edge="1">
          <mxGeometry width="50" height="50" relative="1" as="geometry">
            <mxPoint x="-82.5" y="188" as="sourcePoint" />
            <mxPoint x="100" y="340" as="targetPoint" />
          </mxGeometry>
        </mxCell>
        <mxCell id="XlIEOtquwnbWC1blzNur-27" value="&lt;br&gt;&lt;br&gt;Composable Stable LP&lt;br&gt;(Layer 2)" style="ellipse;whiteSpace=wrap;html=1;fillColor=#d5e8d4;strokeColor=#82b366;strokeWidth=2;" parent="1" vertex="1">
          <mxGeometry x="140" y="240" width="150" height="80" as="geometry" />
        </mxCell>
        <mxCell id="XlIEOtquwnbWC1blzNur-28" value="" style="endArrow=classicThin;html=1;rounded=0;exitX=0.55;exitY=0.95;exitDx=0;exitDy=0;exitPerimeter=0;entryX=0.147;entryY=0.075;entryDx=0;entryDy=0;entryPerimeter=0;endFill=1;" parent="1" target="XlIEOtquwnbWC1blzNur-27" edge="1">
          <mxGeometry width="50" height="50" relative="1" as="geometry">
            <mxPoint x="137.5" y="188" as="sourcePoint" />
            <mxPoint x="100" y="230" as="targetPoint" />
          </mxGeometry>
        </mxCell>
        <mxCell id="XlIEOtquwnbWC1blzNur-29" value="" style="endArrow=classicThin;html=1;rounded=0;exitX=0.55;exitY=0.95;exitDx=0;exitDy=0;exitPerimeter=0;entryX=1;entryY=0;entryDx=0;entryDy=0;endFill=1;" parent="1" target="XlIEOtquwnbWC1blzNur-27" edge="1">
          <mxGeometry width="50" height="50" relative="1" as="geometry">
            <mxPoint x="317.5" y="188" as="sourcePoint" />
            <mxPoint x="410" y="220" as="targetPoint" />
          </mxGeometry>
        </mxCell>
        <mxCell id="XlIEOtquwnbWC1blzNur-30" value="" style="endArrow=classicThin;html=1;rounded=0;exitX=0.55;exitY=0.95;exitDx=0;exitDy=0;exitPerimeter=0;endFill=1;" parent="1" target="XlIEOtquwnbWC1blzNur-27" edge="1">
          <mxGeometry width="50" height="50" relative="1" as="geometry">
            <mxPoint x="197.5" y="188" as="sourcePoint" />
            <mxPoint x="410" y="290" as="targetPoint" />
          </mxGeometry>
        </mxCell>
        <mxCell id="XlIEOtquwnbWC1blzNur-31" value="" style="endArrow=classicThin;html=1;rounded=0;exitX=0.55;exitY=0.95;exitDx=0;exitDy=0;exitPerimeter=0;entryX=0.667;entryY=0.038;entryDx=0;entryDy=0;entryPerimeter=0;endFill=1;" parent="1" target="XlIEOtquwnbWC1blzNur-27" edge="1">
          <mxGeometry width="50" height="50" relative="1" as="geometry">
            <mxPoint x="257.5" y="188" as="sourcePoint" />
            <mxPoint x="410" y="370" as="targetPoint" />
          </mxGeometry>
        </mxCell>
        <mxCell id="XlIEOtquwnbWC1blzNur-32" value="&lt;br&gt;&lt;br&gt;Composable Stable LP&lt;br&gt;(Layer 3)" style="ellipse;whiteSpace=wrap;html=1;fillColor=#d5e8d4;strokeColor=#82b366;strokeWidth=2;" parent="1" vertex="1">
          <mxGeometry x="10" y="450" width="150" height="80" as="geometry" />
        </mxCell>
        <mxCell id="XlIEOtquwnbWC1blzNur-35" value="" style="endArrow=classic;html=1;rounded=0;exitX=0.5;exitY=1;exitDx=0;exitDy=0;entryX=0;entryY=0;entryDx=0;entryDy=0;" parent="1" source="XlIEOtquwnbWC1blzNur-11" target="XlIEOtquwnbWC1blzNur-32" edge="1">
          <mxGeometry width="50" height="50" relative="1" as="geometry">
            <mxPoint x="40" y="380" as="sourcePoint" />
            <mxPoint x="90" y="330" as="targetPoint" />
          </mxGeometry>
        </mxCell>
        <mxCell id="XlIEOtquwnbWC1blzNur-37" value="" style="endArrow=classic;html=1;rounded=0;exitX=0.5;exitY=1;exitDx=0;exitDy=0;entryX=1;entryY=0;entryDx=0;entryDy=0;" parent="1" source="XlIEOtquwnbWC1blzNur-27" target="XlIEOtquwnbWC1blzNur-32" edge="1">
          <mxGeometry width="50" height="50" relative="1" as="geometry">
            <mxPoint x="360" y="410" as="sourcePoint" />
            <mxPoint x="190" y="370" as="targetPoint" />
          </mxGeometry>
        </mxCell>
        <mxCell id="XlIEOtquwnbWC1blzNur-40" value="&lt;h1&gt;&lt;span style=&quot;font-size: 14px;&quot;&gt;Tree Tokens&lt;/span&gt;&lt;/h1&gt;&lt;p&gt;&#39;Reconstructed&#39; tree tokens from Layer 2 composable stables&lt;/p&gt;" style="text;html=1;strokeColor=none;fillColor=none;spacing=5;spacingTop=-20;whiteSpace=wrap;overflow=hidden;rounded=0;" parent="1" vertex="1">
          <mxGeometry x="-370" y="335" width="230" height="110" as="geometry" />
        </mxCell>
        <mxCell id="XlIEOtquwnbWC1blzNur-42" value="&lt;h1&gt;&lt;span style=&quot;font-size: 14px;&quot;&gt;Reserve Token&lt;/span&gt;&lt;/h1&gt;&lt;span style=&quot;background-color: initial;&quot;&gt;Reserve token for index fund reconstructed from tree tokens&lt;/span&gt;" style="text;html=1;strokeColor=none;fillColor=none;spacing=5;spacingTop=-20;whiteSpace=wrap;overflow=hidden;rounded=0;" parent="1" vertex="1">
          <mxGeometry x="-370" y="560" width="200" height="110" as="geometry" />
        </mxCell>
        <mxCell id="XlIEOtquwnbWC1blzNur-43" value="" style="endArrow=classic;html=1;rounded=0;exitX=0.5;exitY=1;exitDx=0;exitDy=0;" parent="1" source="XlIEOtquwnbWC1blzNur-32" edge="1">
          <mxGeometry width="50" height="50" relative="1" as="geometry">
            <mxPoint x="290" y="610" as="sourcePoint" />
            <mxPoint x="85" y="690" as="targetPoint" />
            <Array as="points">
              <mxPoint x="85" y="550" />
            </Array>
          </mxGeometry>
        </mxCell>
        <mxCell id="XlIEOtquwnbWC1blzNur-44" value="&lt;h1&gt;&lt;span style=&quot;font-size: 14px;&quot;&gt;Governance LP (Layer 3)&lt;/span&gt;&lt;/h1&gt;&lt;p&gt;Composable Stable LP with reconstructed iCHIR tokens from their respective liquidity trees (ie, tree iCHIR tokens)&lt;br&gt;&lt;/p&gt;" style="text;html=1;strokeColor=none;fillColor=none;spacing=5;spacingTop=-20;whiteSpace=wrap;overflow=hidden;rounded=0;" parent="1" vertex="1">
          <mxGeometry x="-370" y="440" width="190" height="110" as="geometry" />
        </mxCell>
        <mxCell id="XlIEOtquwnbWC1blzNur-45" value="&lt;h1&gt;&lt;span style=&quot;font-size: 14px;&quot;&gt;Governance LPs (Layer 2)&lt;/span&gt;&lt;/h1&gt;&lt;p&gt;Composable Stable LPs with &#39;decomposed&#39; index tokens from their liquidity respective LPs&lt;/p&gt;" style="text;html=1;strokeColor=none;fillColor=none;spacing=5;spacingTop=-20;whiteSpace=wrap;overflow=hidden;rounded=0;" parent="1" vertex="1">
          <mxGeometry x="-370" y="220" width="190" height="110" as="geometry" />
        </mxCell>
        <mxCell id="XlIEOtquwnbWC1blzNur-46" value="" style="endArrow=classicThin;dashed=1;html=1;rounded=0;strokeWidth=3;endFill=1;" parent="1" edge="1">
          <mxGeometry width="50" height="50" relative="1" as="geometry">
            <mxPoint x="-390" y="220" as="sourcePoint" />
            <mxPoint x="450" y="220" as="targetPoint" />
          </mxGeometry>
        </mxCell>
        <mxCell id="XlIEOtquwnbWC1blzNur-47" value="&lt;b&gt;&lt;font color=&quot;#006600&quot; style=&quot;font-size: 14px;&quot;&gt;Governance&lt;/font&gt;&lt;/b&gt;" style="text;html=1;strokeColor=none;fillColor=none;align=center;verticalAlign=middle;whiteSpace=wrap;rounded=0;" parent="1" vertex="1">
          <mxGeometry x="340" y="230" width="120" height="30" as="geometry" />
        </mxCell>
        <mxCell id="XlIEOtquwnbWC1blzNur-49" value="&lt;font style=&quot;font-size: 14px;&quot;&gt;&lt;b&gt;To Index Fund&lt;/b&gt;&lt;/font&gt;" style="text;html=1;strokeColor=none;fillColor=none;align=center;verticalAlign=middle;whiteSpace=wrap;rounded=0;" parent="1" vertex="1">
          <mxGeometry x="30" y="700" width="120" height="30" as="geometry" />
        </mxCell>
        <mxCell id="CqhTPhu42fMEs7P0CfGA-1" value="&lt;font style=&quot;font-size: 10px;&quot;&gt;iCHIR&lt;/font&gt;&lt;font style=&quot;font-size: 8.33333px;&quot;&gt;&lt;sub&gt;a,1&lt;/sub&gt;&lt;/font&gt;&lt;font style=&quot;&quot;&gt;&lt;br&gt;&lt;/font&gt;" style="rounded=1;whiteSpace=wrap;html=1;fillColor=#f8cecc;strokeColor=#b85450;strokeWidth=2;" parent="1" vertex="1">
          <mxGeometry x="-170" y="160" width="45.5" height="30" as="geometry" />
        </mxCell>
        <mxCell id="CqhTPhu42fMEs7P0CfGA-2" value="&lt;font style=&quot;font-size: 10px;&quot;&gt;iCHIR&lt;/font&gt;&lt;font style=&quot;font-size: 6.94444px;&quot;&gt;&lt;sub&gt;d,1&lt;/sub&gt;&lt;/font&gt;&lt;font style=&quot;&quot;&gt;&lt;br&gt;&lt;/font&gt;" style="rounded=1;whiteSpace=wrap;html=1;fillColor=#dae8fc;strokeColor=#6c8ebf;strokeWidth=2;dashed=1;" parent="1" vertex="1">
          <mxGeometry x="20" y="160" width="45.5" height="30" as="geometry" />
        </mxCell>
        <mxCell id="CqhTPhu42fMEs7P0CfGA-3" value="&lt;font style=&quot;font-size: 10px;&quot;&gt;iCHIR&lt;/font&gt;&lt;font style=&quot;font-size: 6.94444px;&quot;&gt;&lt;sub&gt;c,1&lt;/sub&gt;&lt;/font&gt;&lt;font style=&quot;&quot;&gt;&lt;br&gt;&lt;/font&gt;" style="rounded=1;whiteSpace=wrap;html=1;fillColor=#dae8fc;strokeColor=#6c8ebf;strokeWidth=2;" parent="1" vertex="1">
          <mxGeometry x="-45" y="160" width="45.5" height="30" as="geometry" />
        </mxCell>
        <mxCell id="CqhTPhu42fMEs7P0CfGA-4" value="&lt;font style=&quot;font-size: 10px;&quot;&gt;iCHIR&lt;/font&gt;&lt;font style=&quot;font-size: 6.94444px;&quot;&gt;&lt;sub&gt;b,1&lt;/sub&gt;&lt;/font&gt;&lt;font style=&quot;&quot;&gt;&lt;br&gt;&lt;/font&gt;" style="rounded=1;whiteSpace=wrap;html=1;fillColor=#e1d5e7;strokeColor=#9673a6;strokeWidth=2;" parent="1" vertex="1">
          <mxGeometry x="-110" y="160" width="45.5" height="30" as="geometry" />
        </mxCell>
        <mxCell id="CqhTPhu42fMEs7P0CfGA-5" value="&lt;font style=&quot;font-size: 10px;&quot;&gt;iCHIR&lt;/font&gt;&lt;font style=&quot;font-size: 8.33333px;&quot;&gt;&lt;sub&gt;a,2&lt;/sub&gt;&lt;/font&gt;&lt;font style=&quot;&quot;&gt;&lt;br&gt;&lt;/font&gt;" style="rounded=1;whiteSpace=wrap;html=1;fillColor=#f8cecc;strokeColor=#b85450;strokeWidth=2;" parent="1" vertex="1">
          <mxGeometry x="114.5" y="160" width="45.5" height="30" as="geometry" />
        </mxCell>
        <mxCell id="CqhTPhu42fMEs7P0CfGA-6" value="&lt;font style=&quot;font-size: 10px;&quot;&gt;iCHIR&lt;/font&gt;&lt;font style=&quot;font-size: 6.94444px;&quot;&gt;&lt;sub&gt;b,2&lt;/sub&gt;&lt;/font&gt;&lt;font style=&quot;&quot;&gt;&lt;br&gt;&lt;/font&gt;" style="rounded=1;whiteSpace=wrap;html=1;fillColor=#e1d5e7;strokeColor=#9673a6;strokeWidth=2;" parent="1" vertex="1">
          <mxGeometry x="174.5" y="160" width="45.5" height="30" as="geometry" />
        </mxCell>
        <mxCell id="CqhTPhu42fMEs7P0CfGA-7" value="&lt;font style=&quot;font-size: 10px;&quot;&gt;iCHIR&lt;/font&gt;&lt;font style=&quot;font-size: 6.94444px;&quot;&gt;&lt;sub&gt;c,2&lt;/sub&gt;&lt;/font&gt;&lt;font style=&quot;&quot;&gt;&lt;br&gt;&lt;/font&gt;" style="rounded=1;whiteSpace=wrap;html=1;fillColor=#dae8fc;strokeColor=#6c8ebf;strokeWidth=2;" parent="1" vertex="1">
          <mxGeometry x="240" y="160" width="45.5" height="30" as="geometry" />
        </mxCell>
        <mxCell id="CqhTPhu42fMEs7P0CfGA-8" value="&lt;font style=&quot;font-size: 10px;&quot;&gt;iCHIR&lt;/font&gt;&lt;font style=&quot;font-size: 6.94444px;&quot;&gt;&lt;sub&gt;d,2&lt;/sub&gt;&lt;/font&gt;&lt;font style=&quot;&quot;&gt;&lt;br&gt;&lt;/font&gt;" style="rounded=1;whiteSpace=wrap;html=1;fillColor=#dae8fc;strokeColor=#6c8ebf;strokeWidth=2;dashed=1;" parent="1" vertex="1">
          <mxGeometry x="300" y="160" width="45.5" height="30" as="geometry" />
        </mxCell>
        <mxCell id="CqhTPhu42fMEs7P0CfGA-9" value="&lt;font style=&quot;font-size: 10px;&quot;&gt;tCHIR&lt;/font&gt;&lt;font style=&quot;font-size: 6.94444px;&quot;&gt;&lt;sub&gt;1&lt;/sub&gt;&lt;/font&gt;&lt;font style=&quot;&quot;&gt;&lt;br&gt;&lt;/font&gt;" style="rounded=1;whiteSpace=wrap;html=1;fillColor=#b1ddf0;strokeColor=#10739e;strokeWidth=2;" parent="1" vertex="1">
          <mxGeometry x="-45" y="370" width="60" height="40" as="geometry" />
        </mxCell>
        <mxCell id="CqhTPhu42fMEs7P0CfGA-11" value="&lt;font style=&quot;font-size: 10px;&quot;&gt;tCHIR&lt;/font&gt;&lt;font style=&quot;font-size: 5.78703px;&quot;&gt;2&lt;/font&gt;&lt;font style=&quot;&quot;&gt;&lt;br&gt;&lt;/font&gt;" style="rounded=1;whiteSpace=wrap;html=1;fillColor=#bac8d3;strokeColor=#23445d;strokeWidth=2;" parent="1" vertex="1">
          <mxGeometry x="145" y="370" width="60" height="40" as="geometry" />
        </mxCell>
        <mxCell id="CqhTPhu42fMEs7P0CfGA-13" value="&lt;font style=&quot;font-size: 10px;&quot;&gt;rCHIR&lt;/font&gt;&lt;font style=&quot;&quot;&gt;&lt;br&gt;&lt;/font&gt;" style="rounded=1;whiteSpace=wrap;html=1;fillColor=#d5e8d4;strokeColor=#82b366;strokeWidth=2;" parent="1" vertex="1">
          <mxGeometry x="54.5" y="580" width="60" height="40" as="geometry" />
        </mxCell>
        <mxCell id="ncCHN4ETq4YkFRPHOsf6-1" value="" style="shape=image;verticalLabelPosition=bottom;labelBackgroundColor=default;verticalAlign=top;aspect=fixed;imageAspect=0;image=data:image/png,iVBORw0KGgoAAAANSUhEUgAAAQgAAAAmCAYAAAA4JwUNAAABW2lDQ1BJQ0MgUHJvZmlsZQAAKJF1kL1Lw1AUxU9qJaKBKjiJQsDFIUpptepYq6hQMNQP/AAhTdtU6MfrS6wIbrq5+A/o5P+gOOmsmyII7urkIBZBS7wvVdsqXrjcH4fzLvcdwNdmMJbzA8gXHJ6YnlCXV1ZV+QEdkCCjByOGabOorsfJgu/ZXJVb8lJdD4pdkd3ya7Hr6OZZfXq83Ff2/vqbqj2Vtk2aH9RBk3EHkDRifcthgneIuzkdRXwg2KrxseBkjU89z0IiRnxF3GlmjRTxPbGWbNCtBs7nNs2vG8T1SrqwOC/2UPdCxwziUBHCKCKYwhiW/vEPe/4YimDYBscGLGTh0NsoKQw5pIlnUYCJIWjeziB1WOT8O7+6xuaA8TLgM+ra+iRw0g8ESnVtgP4TyAAXa8zgxk+qUsVvZ8KhGiscaH1z3Zc+QD4Dqtx13w9dt0oZttwB56VPyc5iK2/hwVsAAAXiZVhJZk1NACoAAAAIAAQBGgAFAAAAAQAAAD4BGwAFAAAAAQAAAEYBKAADAAAAAQACAACHaQAEAAAAAQAAAE4AAAAAAAAAkAAAAAEAAACQAAAAAQADkoYABwAABWkAAAB4oAIABAAAAAEAAAEIoAMABAAAAAEAAAAmAAAAAEFTQ0lJAAAAQUFBRkFuamFiVk5kYkJ0RkVKNjlUZHNrYmVKTDBwODAvYnNTQnhMNlE1SUdHbHgrNGpSMUc1cTRQMmNuVG1MWApyTTlyKzVyem5ibGJKM0dzU1B1QUNrTHd3Rk5wSDRBNFFsQ0VnQ0tvVUNWQUNBSUlvUWlTQ0NvaFFIM3FDK3BEClh4Q3FrRmovVUFycXJrNDNNN3N6ODgwM3M3R01vVHVzczNNVlNiaHF6ZHAxdFNIM0ZMVWQzVExIM01UV1VyclEKQW01bVpVSnVLM2FXYXN4cEJIVHU5YWpzOHF2SGFZN0d2WlZMUDFUWEJHekxZaHk5Sis5ZXY2SHQvZ2ZhT3g3YwpzM2ZmL29jZVB2UlkzOEJUeDArZEhwODRRMmppYkRyRHNrRzNtVFdNbGJwNmw5emlIdldyK3lkcHpoa1gvMHFTCkViZG1FTWU1MU5EWXRISFQ1aTNOVzduRU1hL2lhL2hhdm81WDh4cGVlMm5iOWgwN2R5bTc3MnZsNi9rR1hzOWQKdklHMzhHMThCOS9KbFZDTU9OVFFUUnJVTE1PeUEya3JUb05NWndZTlpXeEswakdEUnRJa2Flb0pYU05NbEJ1SQpFMFpGV1RHaVRTWnRLMnZHRHhjZHh4MHJhMnMwUUdkWUsxVFdTbWVYcS90QVQ5Q3ZuajdhSC9hcnBZdHFobWpVCjE2bUlEVExpZGN1UEhPeDlkTHhjaGtuU05GUVdxVE5hY1NqMGVrSis5VVNwWHJscTJmWDRFMCtPQ1FJY1p1dG0Ka3NzblJRQnZmNG5uNFN3akFxOWFPbG53SGk3NmxaV1ZJeTdmMFdPRGQzUUJ4c3VFRk1zeTZ2Qkd2cFUzUmVYbApjTnpTc21scXNoS0NpYTdPREl2a2ljMTB6YUJ6dGVHc1F3WDJTWktrRTBJc1luVWkrUkpyYzBxYnNNU1ZoR1dMCnoyUkt5WHEzUjU2a0hTZVhqb21iYWNKU3p2L1Bpc1o3blUxa1dhSTNrdGZOakVCcWF1VkVpYXloTUV0aHVReFYKNHJvdGVERnlRaUNhclF1c2lwWWlOdEdZbU03YTR1QU0rVS9PRC9PTjh5ZjRKdDQ4NGxkOUF1Q3FHZ2k2UmtaRApZMEpYOVZrcWlFbjRESkowaE80WGhiWDJ0WmRiS010OE05OHlNbXlaUkxNRTArRklKVUloN0JGcTlHbkI1SUN1CkZRZUQyTGxDdEdpTWFWRzU4UzZDNDJYT0MzSFBQZTJ0ZmQzbFhNdEpWMG92empqVEJRTHZZbTYyK3ZMVkMzeTcKQ0RscGlMUURZdkFLazU3aVZKa0hlbnhkaXRqQTY0cTlmZWJZSU45VjdtSkhJcHJYOTJyT25PSlJ3Z1BVWUVRWgpVc0sybmt3eFl0dlc5RDlHZlViRW5acU95azEzQnVmZlFoYW1vaDZvaGdab0FUZDBRRGNjaEVFWWdsT2d3alRNCndiUHdJcHlIVitFdGVCdmVnWGZoZmZnQVBvUXI4REZjaFMvaEsvZ0d2b1h2WUFtK2gyVlloUi9oR2x5SEcvQTcKM0lMYnFBYlZJd1h0UVQzb0VQSWlQd3FpVVRTR3ppQWQyV2dXemFGejZIbjBFanFQTHFDTDZEVjBHWDJFUGtXTAphQW45akg1QnY2SHIwaFhwRStrejZYUHBDMmxSK2xwYWtuNlNmcFZ1U0RlbFA2US9wZHZTWDdnSzEyQVpOK0ZtCjNJYmI4VDdjajQvZ2NhemhGTTdnSE01ampwL0RMK0NYOFN2NElwN0hDL2dOL0NaZXdkZnd6WElUSkZSNXZEUHcKbjRWdi9RMDNpNThLAJBwfvUAAAAJcEhZcwAAFiUAABYlAUlSJPAAAAhRaVRYdFhNTDpjb20uYWRvYmUueG1wAAAAAAA8eDp4bXBtZXRhIHhtbG5zOng9ImFkb2JlOm5zOm1ldGEvIiB4OnhtcHRrPSJYTVAgQ29yZSA2LjAuMCI+CiAgIDxyZGY6UkRGIHhtbG5zOnJkZj0iaHR0cDovL3d3dy53My5vcmcvMTk5OS8wMi8yMi1yZGYtc3ludGF4LW5zIyI+CiAgICAgIDxyZGY6RGVzY3JpcHRpb24gcmRmOmFib3V0PSIiCiAgICAgICAgICAgIHhtbG5zOnRpZmY9Imh0dHA6Ly9ucy5hZG9iZS5jb20vdGlmZi8xLjAvIgogICAgICAgICAgICB4bWxuczpleGlmPSJodHRwOi8vbnMuYWRvYmUuY29tL2V4aWYvMS4wLyI+CiAgICAgICAgIDx0aWZmOllSZXNvbHV0aW9uPjE0NDwvdGlmZjpZUmVzb2x1dGlvbj4KICAgICAgICAgPHRpZmY6WFJlc29sdXRpb24+MTQ0PC90aWZmOlhSZXNvbHV0aW9uPgogICAgICAgICA8dGlmZjpSZXNvbHV0aW9uVW5pdD4yPC90aWZmOlJlc29sdXRpb25Vbml0PgogICAgICAgICA8ZXhpZjpQaXhlbFlEaW1lbnNpb24+Mzg8L2V4aWY6UGl4ZWxZRGltZW5zaW9uPgogICAgICAgICA8ZXhpZjpVc2VyQ29tbWVudD5BQUFGQW5qYWJWTmRiQnRGRUo2OVRkc2tiZUpMMHA4MC9ic1NCeEw2UTVJR0dseCs0alIxRzVxNFAyY25UbUxYJiN4QTtyTTlyKzVyem5ibGJKM0dzU1B1QUNrTHd3Rk5wSDRBNFFsQ0VnQ0tvVUNWQUNBSUlvUWlTQ0NvaFFIM3FDK3BEJiN4QTtYeENxa0ZqL1VBcnFyazQzTTdzejg4MDNzN0dNb1R1c3MzTVZTYmhxemRwMXRTSDNGTFVkM1RMSDNNVFdVcnJRJiN4QTtBbTVtWlVKdUszYVdhc3hwQkhUdTlhanM4cXZIYVk3R3ZaVkxQMVRYQkd6TFloeTlKKzlldjZIdC9nZmFPeDdjJiN4QTtzM2ZmL29jZVB2UlkzOEJUeDArZEhwODRRMmppYkRyRHNrRzNtVFdNbGJwNmw5emlIdldyK3lkcHpoa1gvMHFTJiN4QTtFYmRtRU1lNTFORFl0SEhUNWkzTlc3bkVNYS9pYS9oYXZvNVg4eHBlZTJuYjloMDdkeW03NzJ2bDYva0dYczlkJiN4QTt2SUczOEcxOEI5L0psVkNNT05UUVRSclVMTU95QTJrclRvTk1ad1lOWld4SzBqR0RSdElrYWVvSlhTTk1sQnVJJiN4QTtFMFpGV1RHaVRTWnRLMnZHRHhjZHh4MHJhMnMwUUdkWUsxVFdTbWVYcS90QVQ5Q3ZuajdhSC9hcnBZdHFobWpVJiN4QTsxNm1JRFRMaWRjdVBIT3g5ZEx4Y2hrblNORlFXcVROYWNTajBla0orOVVTcFhybHEyZlg0RTArT0NRSWNadXRtJiN4QTtrc3NuUlFCdmY0bm40U3dqQXE5YU9sbndIaTc2bFpXVkl5N2YwV09EZDNRQnhzdUVGTXN5NnZCR3ZwVTNSZVhsJiN4QTtjTnpTc21scXNoS0NpYTdPREl2a2ljMTB6YUJ6dGVHc1F3WDJTWktrRTBJc1luVWkrUkpyYzBxYnNNU1ZoR1dMJiN4QTt6MlJLeVhxM1I1NmtIU2VYam9tYmFjSlN6di9QaXNaN25VMWtXYUkza3RmTmpFQnFhdVZFaWF5aE1FdGh1UXhWJiN4QTs0cm90ZURGeVFpQ2FyUXVzaXBZaU50R1ltTTdhNHVBTStVL09EL09OOHlmNEp0NDg0bGQ5QXVDcUdnaTZSa1pEJiN4QTtZMEpYOVZrcWlFbjRESkowaE80WGhiWDJ0WmRiS010OE05OHlNbXlaUkxNRTArRklKVUloN0JGcTlHbkI1SUN1JiN4QTtGUWVEMkxsQ3RHaU1hVkc1OFM2QzQyWE9DM0hQUGUydGZkM2xYTXRKVjBvdnpqalRCUUx2WW02Mit2TFZDM3k3JiN4QTtDRGxwaUxRRFl2QUtrNTdpVkprSGVueGRpdGpBNjRxOWZlYllJTjlWN21KSElwclg5MnJPbk9KUndnUFVZRVFaJiN4QTtVc0sybmt3eFl0dlc5RDlHZlViRW5acU95azEzQnVmZlFoYW1vaDZvaGdab0FUZDBRRGNjaEVFWWdsT2d3alRNJiN4QTt3YlB3SXB5SFYrRXRlQnZlZ1hmaGZmZ0FQb1FyOERGY2hTL2hLL2dHdm9YdllBbStoMlZZaFIvaEdseUhHL0E3JiN4QTszSUxicUFiVkl3WHRRVDNvRVBJaVB3cWlVVFNHemlBZDJXZ1d6YUZ6NkhuMEVqcVBMcUNMNkRWMEdYMkVQa1dMJiN4QTthQW45akg1QnY2SHIwaFhwRStrejZYUHBDMmxSK2xwYWtuNlNmcFZ1U0RlbFA2US9wZHZTWDdnSzEyQVpOK0ZtJiN4QTszSWJiOFQ3Y2o0L2djYXpoRk03Z0hNNWpqcC9ETCtDWDhTdjRJcDdIQy9nTi9DWmV3ZGZ3elhJVEpGUjV2RFB3JiN4QTtuNFZ2L1EwM2k1OEs8L2V4aWY6VXNlckNvbW1lbnQ+CiAgICAgICAgIDxleGlmOlBpeGVsWERpbWVuc2lvbj4yNjQ8L2V4aWY6UGl4ZWxYRGltZW5zaW9uPgogICAgICA8L3JkZjpEZXNjcmlwdGlvbj4KICAgPC9yZGY6UkRGPgo8L3g6eG1wbWV0YT4KFXNm0QAADE1JREFUeAHtmnu0V0UVx3mqgAgiUsRDBAkFIwxQwQICsSJNI80UlEWB/VHmSsXKlWQpgZmoV2RZVguNgEyCWKtlZcENJKQsFQ0rQlBEQDQQ8IH2+n50tgyH3+Oc3++c37lwZ6/1vTNnZu89M3vPY8/cX5MmgYIFggWCBYpYoHmR8lDc8CzQRl1qJvyn4XUt9KiEBRqd33rIGDOEnwvThKFCoGwtMEDq3xBeFDpm21TQnqIFGp3fzpHxmKh7hQXCWuF/wg1CoOwssESqsTO4KYNmlkvnVuFZYZ3wpPCY8LjwlPC08JwAzzwhUDwLZO03etFOIErJnfqqB68LTNJJwqnC8+77JaWBsrHAQKm1zYF0t5B2FPEt6bxHeEAwH1ubO1z5fKV3C58RApW3QC38RiSPv7YLR5fvUrYcc6TeJmhL5ee6b8o2CIGyscAvpNYWq6VMjKzoYSm2djYp3z6rhg5xvVn7rY/s91/BfDU2T3t2UuNcLejM71xHvuK+6eQVriwk6VrgA1KHzbnK/dvl+c4iipDaJq0Fro826e6gMFBiC9TCbz3UK4v2dirfLXEvUxS4ULps0kx3eg9T+nHhve47JOlbYLFUsgEPEPyIDV+YH5RNjUZJk/mZNNdTKbVR1V5Rrfz2EQ3tciHtK2dii82UhE2c8xNLB4FKLHCKs/kiJ0xIyb84zQ9EEce4urQSHptNPxtT2vrT6mdD1pOH33K3B6/cNnF6596bxtEBNgaLHmzEP1HG/ED6batIKV3h6V+Tks5aqxmuBn8jnFnrhl17efgtp6G+3WxTJbsEJuQeoZkQKFsLcAqxOVj0YK2dqIwfReCXtE75VtLlvz/UWaMHWXqR+stcZZOoNeXht1qP8YD2iBgwOFh1QG0oyMIC/AgtGj1YO/OUMX+QTrOKKtND5f2hs+yA7dhIu1dpk6TitfBbe3Xqg0LSt78OkhkqDBFaCFHiHWOE0F9oLpSkWap9WtggbBX8CUkZoH6S0JiIRbRMeEj4aEYD50GSCR6NHqy5k5SJRhE4v1ritxDmZ9pPKzKptl+VyC9xY7muEuEKZWrhtynqm/3nAl+tFsr5/kjx/Fjw/wvG7yamCtwOjhKih85zKjtbKEpXqGa+w26lNnFWeuU0errQWIhddZNgttipPGVpU6lTyNrCN9YP0jSiCP+daY01dJCmnJLYhYlebgGlNcSs/XaJOsrBwKbXVmBzYIw/EIoRmzx824TJAnIfEvhhI7LXCkuFXcJ4oauwWaBuhxBrfi92AggNFhorHauBYwPDq8q3TNkY75e+UtGDNcevWpks1peXla9mIbSS/F5PX53yBzvVawDYh1+HclJmSVn77Xh1/jXhdm8QK5RnfOu9Mj/LmOEhWuA/YD7N1IfNHVJ+rgDZb5usjjlflp4RBwKEKEykxkxMNjMePztOmxZKIRsE4Wo5WiAG6wvpjeUEStSPjOgaW4L3YKnqpY5yCmKbNCKsUuPO2m9sDIyFH7JB7QTb0Ne8VXLgnwkqYuxnHVjV5Ouujvp6r/67XnkxvR7726cSSsCT+9U0zg9CrmFCFpFUf+mNEz2Y5fspE40ijrbKhOmh9P7gD/1j+rCFxD27jV+ZUj5rvx2mfhIhzvb6O1F5W5d3eOV+9gl9rPYLvPy9ypv8BK+cK8kMYYrAo2VZ8k+WuWW59zGMU3ajcNW+opArY4H7VR83ejBVP1XGHE16g1UkTJd7emKdHAn1F2JnsXauAZiLZqN1yl8sNBPSoqz9xvWCg2Cg1+FlytuYRnvllj1CGR4z2SAL0VMqNPkuhRjill3pKbo6rpD4cAQdYNcOVN4CSU8h00gUwaZizuakSRpFtJKMnbLoqRPiEm8wPxR6xhVwfPC/IVi/a53+XW0TDVZLtfJbC6+jbBjmc67/xTa7YuPjXcHkWaclyW+4EOMpXuGjXr5clpPsDIFwJVB5C1znWL5ZnnU/jr/qixPsAld6lNIvC1Pdd5xkiJgIY43qLRMj/bR4Pitwd01C28TM43enJEJV8A73ZPcoz8HFqVwt1cpvvP8ZTVCmqfu4RymLvRAVG98wMZt8fSHBJGXcY2x3534SKH0LvE8qcfKiClWf7OTNT/z7tX0CXWxKJks/kvh5pfiTHBwJupUa683SxPhYZHcJ7xbSoDz8xsLeKJi/elUwkFme/PgK5N8R4R7zplP27DulIZO2Be6TQhZmnP9cFGv7Z6qwSUPKoo9LvxejySZ5f+BOjBzX0IZKt6hj9JF/SY9JuZN5+G2kGw9jWlHhePz3h64V6nhLbLD+2sRZElMRO9p5QoeY/HHZuji9n1DaLYbQ4eIZJBB6947BnxeLnf6VRg/WbzvNzF9xowh7zDK5OlNYJuVq+ojAqZzWiVymycTVYyXBuHYLwxNLlxbIy2/3qlvmq0leF29U/vved7Hse1Rh8uuLMI1S+d+K1O1XPFlfpqzcicQddrGwWeABiImDg6qh5hLmhxubBB60Vgj1Arq/JxBuRamlCm4V4P+jsFBgx9wifEpIg9is4mxScdrivxDVRg/Wzv3KmL9Ir7eKEumHVefLxPXZtU7ugRK686xi4yPqZWyXZdCRPPzGYzLvJ4yJiIj3JojNertwGx+OWDvMd9Ywh6XRRGXM33OsMJKu0vdfImUFP2er1JR9siDHvkIW7GNCe2GcgNwfhEqppwSRR89c4UgBOkbAGJT3F6I0RwWvC6O8Cgy4U1jnlVWanS5BNija5y5XDfWTMHqeEE5IAXZiohPsEPBHKWLjN/447w/YEhmzwUWllOdYd5XaZlwPCU1T7kdefhvqxsS45ntjIkqmzF8Pv3RllF8jGD2oDGUAG0VpmAqo+1y0otC3LVAEehRicGW9lTJhCOmhOgEZnFMJtZbQWgEd0UU40ZXzQnuc4NPx+mCS1/uFyp8toOufkfKkn+zYrwnoAnsFIpZKaYEETVdW6TdKdI5T5nGvD2tK8FLFf7RWC9bXXcpzqjVE4jCgnyMy6FxefrN5zLhYBxDRwT8EFr5RZ2VYB+anK13FCK+MOt5nfCIqJurCx039ikL5Ziq0cGZrIQav7AvKP+y+j1D6kkAHpriypAnRCPKvCB0iwkQQXBtoM0pnqQA5rhc3C6cKGLCtcL1gG5iyFVEbSaGbNsAWgUVWCfWVEJuc6coqJYpo53XwHOW/IxAdEkb67eI36qZ7gI+ry0bB5yX/I6Eh0gB1iv5tFpjHaVJefmMMrAWbM5coz1r4lfCC0F0wwt8W4bHgOwlEH88LfxZuF7DPBuFYARojcICuFboIZelEcaAEMEFKEadoa8dwsVJk3hTe5cqSJDx4Wbt3JhEUL4bgemHypHzfJ/QR0qDPSwmGXi9cUIXCqyXr9zOrPCfJuV4/mVBptEUkdZqntyFlL3NjnJlBp/Lymw3li8rgUzYKNgE2h2FClL6kAq7V8DBf8fkygTVJ1HerQB3rg4OB+t8KHYVYZAsdQQwel5aKEZlFcQUifOc7eXT0i9TF+TxPTBsF5H1gSNstlQ10CFuAEJsQnPRQJK7SrE+iQaKFYkT0NEi4VDhZiF4bTlDZhQK6qE9Et4jbFli3mJK9xMfuhtwYJ0O4wt09LnE1QH5HXAHH10JpV5fHECcJhGFLBBsHhggULBAskNAC/cV/l8CmYLvMI8qzsJYLcWmaGJF5RmD34upBKD5RiBIbR+toob4vF9CxrkCdX9RdH7YhoGejQNjF/TNK81SATjaMQMECwQIJLbBF/CwgQIhOKG6RwDjl4xKvn+iwux/39VcF7j0+fU0f6H9RYKH71Fcf1pdufoWXH608EcY1ruxcpSZDSOUTG96Dwi4h2g+fL+SDBYIFiljAFhfpCIEFTH6lQCQQl4g2kGNTGSxsFqYKUfqTCqxNNpEo3akC6mcJfvs8nNYJPK7MFrhWQLxVwL9UIGox6qgMkRH8k60wpMECwQLJLGCLlcU3VHhZeEXoLSShkWL+l4D8a8JtQiHi0XOPQLt3F2JQGRvLdmGbsErgJRa9C4XThCiNV8EGAZ5HHYgakD1DCBQsECxQoQVYjCxYrgMs2heEM4VKiN8FDBLaxhCeIZ6byvD1VP3pQqcyfFQTbRwnDBH6uG8lgYIFggWqtcDhUjBaIApoVa2ymPK/Ft+lMXkDW7BAsEAjssBAjXWn0L4RjTkMNVggWCCGBbgu8F7w1Ri8gSVYIFggRwv8H8PzZssPCHyFAAAAAElFTkSuQmCC;" parent="1" vertex="1">
          <mxGeometry x="-110.5" y="263" width="110" height="15.83" as="geometry" />
        </mxCell>
        <mxCell id="ncCHN4ETq4YkFRPHOsf6-2" value="" style="shape=image;verticalLabelPosition=bottom;labelBackgroundColor=default;verticalAlign=top;aspect=fixed;imageAspect=0;image=data:image/png,iVBORw0KGgoAAAANSUhEUgAAAQgAAAAmCAYAAAA4JwUNAAABW2lDQ1BJQ0MgUHJvZmlsZQAAKJF1kL1Lw1AUxU9qJaKBKjiJQsDFIUpptepYq6hQMNQP/AAhTdtU6MfrS6wIbrq5+A/o5P+gOOmsmyII7urkIBZBS7wvVdsqXrjcH4fzLvcdwNdmMJbzA8gXHJ6YnlCXV1ZV+QEdkCCjByOGabOorsfJgu/ZXJVb8lJdD4pdkd3ya7Hr6OZZfXq83Ff2/vqbqj2Vtk2aH9RBk3EHkDRifcthgneIuzkdRXwg2KrxseBkjU89z0IiRnxF3GlmjRTxPbGWbNCtBs7nNs2vG8T1SrqwOC/2UPdCxwziUBHCKCKYwhiW/vEPe/4YimDYBscGLGTh0NsoKQw5pIlnUYCJIWjeziB1WOT8O7+6xuaA8TLgM+ra+iRw0g8ESnVtgP4TyAAXa8zgxk+qUsVvZ8KhGiscaH1z3Zc+QD4Dqtx13w9dt0oZttwB56VPyc5iK2/hwVsAAAXiZVhJZk1NACoAAAAIAAQBGgAFAAAAAQAAAD4BGwAFAAAAAQAAAEYBKAADAAAAAQACAACHaQAEAAAAAQAAAE4AAAAAAAAAkAAAAAEAAACQAAAAAQADkoYABwAABWkAAAB4oAIABAAAAAEAAAEIoAMABAAAAAEAAAAmAAAAAEFTQ0lJAAAAQUFBRkFuamFiVk5kYkJ0RkVKNjlUZHNrYmVKTDBwODAvYnNTQnhMNlE1SUdHbHgrNGpSMUc1cTRQMmNuVG1MWApyTTlyKzVyem5ibGJKM0dzU1B1QUNrTHd3Rk5wSDRBNFFsQ0VnQ0tvVUNWQUNBSUlvUWlTQ0NvaFFIM3FDK3BEClh4Q3FrRmovVUFycXJrNDNNN3N6ODgwM3M3R01vVHVzczNNVlNiaHF6ZHAxdFNIM0ZMVWQzVExIM01UV1VyclEKQW01bVpVSnVLM2FXYXN4cEJIVHU5YWpzOHF2SGFZN0d2WlZMUDFUWEJHekxZaHk5Sis5ZXY2SHQvZ2ZhT3g3YwpzM2ZmL29jZVB2UlkzOEJUeDArZEhwODRRMmppYkRyRHNrRzNtVFdNbGJwNmw5emlIdldyK3lkcHpoa1gvMHFTCkViZG1FTWU1MU5EWXRISFQ1aTNOVzduRU1hL2lhL2hhdm81WDh4cGVlMm5iOWgwN2R5bTc3MnZsNi9rR1hzOWQKdklHMzhHMThCOS9KbFZDTU9OVFFUUnJVTE1PeUEya3JUb05NWndZTlpXeEswakdEUnRJa2Flb0pYU05NbEJ1SQpFMFpGV1RHaVRTWnRLMnZHRHhjZHh4MHJhMnMwUUdkWUsxVFdTbWVYcS90QVQ5Q3ZuajdhSC9hcnBZdHFobWpVCjE2bUlEVExpZGN1UEhPeDlkTHhjaGtuU05GUVdxVE5hY1NqMGVrSis5VVNwWHJscTJmWDRFMCtPQ1FJY1p1dG0Ka3NzblJRQnZmNG5uNFN3akFxOWFPbG53SGk3NmxaV1ZJeTdmMFdPRGQzUUJ4c3VFRk1zeTZ2Qkd2cFUzUmVYbApjTnpTc21scXNoS0NpYTdPREl2a2ljMTB6YUJ6dGVHc1F3WDJTWktrRTBJc1luVWkrUkpyYzBxYnNNU1ZoR1dMCnoyUkt5WHEzUjU2a0hTZVhqb21iYWNKU3p2L1Bpc1o3blUxa1dhSTNrdGZOakVCcWF1VkVpYXloTUV0aHVReFYKNHJvdGVERnlRaUNhclF1c2lwWWlOdEdZbU03YTR1QU0rVS9PRC9PTjh5ZjRKdDQ4NGxkOUF1Q3FHZ2k2UmtaRApZMEpYOVZrcWlFbjRESkowaE80WGhiWDJ0WmRiS010OE05OHlNbXlaUkxNRTArRklKVUloN0JGcTlHbkI1SUN1CkZRZUQyTGxDdEdpTWFWRzU4UzZDNDJYT0MzSFBQZTJ0ZmQzbFhNdEpWMG92empqVEJRTHZZbTYyK3ZMVkMzeTcKQ0RscGlMUURZdkFLazU3aVZKa0hlbnhkaXRqQTY0cTlmZWJZSU45VjdtSkhJcHJYOTJyT25PSlJ3Z1BVWUVRWgpVc0sybmt3eFl0dlc5RDlHZlViRW5acU95azEzQnVmZlFoYW1vaDZvaGdab0FUZDBRRGNjaEVFWWdsT2d3alRNCndiUHdJcHlIVitFdGVCdmVnWGZoZmZnQVBvUXI4REZjaFMvaEsvZ0d2b1h2WUFtK2gyVlloUi9oR2x5SEcvQTcKM0lMYnFBYlZJd1h0UVQzb0VQSWlQd3FpVVRTR3ppQWQyV2dXemFGejZIbjBFanFQTHFDTDZEVjBHWDJFUGtXTAphQW45akg1QnY2SHIwaFhwRStrejZYUHBDMmxSK2xwYWtuNlNmcFZ1U0RlbFA2US9wZHZTWDdnSzEyQVpOK0ZtCjNJYmI4VDdjajQvZ2NhemhGTTdnSE01ampwL0RMK0NYOFN2NElwN0hDL2dOL0NaZXdkZnd6WElUSkZSNXZEUHcKbjRWdi9RMDNpNThLAJBwfvUAAAAJcEhZcwAAFiUAABYlAUlSJPAAAAhRaVRYdFhNTDpjb20uYWRvYmUueG1wAAAAAAA8eDp4bXBtZXRhIHhtbG5zOng9ImFkb2JlOm5zOm1ldGEvIiB4OnhtcHRrPSJYTVAgQ29yZSA2LjAuMCI+CiAgIDxyZGY6UkRGIHhtbG5zOnJkZj0iaHR0cDovL3d3dy53My5vcmcvMTk5OS8wMi8yMi1yZGYtc3ludGF4LW5zIyI+CiAgICAgIDxyZGY6RGVzY3JpcHRpb24gcmRmOmFib3V0PSIiCiAgICAgICAgICAgIHhtbG5zOnRpZmY9Imh0dHA6Ly9ucy5hZG9iZS5jb20vdGlmZi8xLjAvIgogICAgICAgICAgICB4bWxuczpleGlmPSJodHRwOi8vbnMuYWRvYmUuY29tL2V4aWYvMS4wLyI+CiAgICAgICAgIDx0aWZmOllSZXNvbHV0aW9uPjE0NDwvdGlmZjpZUmVzb2x1dGlvbj4KICAgICAgICAgPHRpZmY6WFJlc29sdXRpb24+MTQ0PC90aWZmOlhSZXNvbHV0aW9uPgogICAgICAgICA8dGlmZjpSZXNvbHV0aW9uVW5pdD4yPC90aWZmOlJlc29sdXRpb25Vbml0PgogICAgICAgICA8ZXhpZjpQaXhlbFlEaW1lbnNpb24+Mzg8L2V4aWY6UGl4ZWxZRGltZW5zaW9uPgogICAgICAgICA8ZXhpZjpVc2VyQ29tbWVudD5BQUFGQW5qYWJWTmRiQnRGRUo2OVRkc2tiZUpMMHA4MC9ic1NCeEw2UTVJR0dseCs0alIxRzVxNFAyY25UbUxYJiN4QTtyTTlyKzVyem5ibGJKM0dzU1B1QUNrTHd3Rk5wSDRBNFFsQ0VnQ0tvVUNWQUNBSUlvUWlTQ0NvaFFIM3FDK3BEJiN4QTtYeENxa0ZqL1VBcnFyazQzTTdzejg4MDNzN0dNb1R1c3MzTVZTYmhxemRwMXRTSDNGTFVkM1RMSDNNVFdVcnJRJiN4QTtBbTVtWlVKdUszYVdhc3hwQkhUdTlhanM4cXZIYVk3R3ZaVkxQMVRYQkd6TFloeTlKKzlldjZIdC9nZmFPeDdjJiN4QTtzM2ZmL29jZVB2UlkzOEJUeDArZEhwODRRMmppYkRyRHNrRzNtVFdNbGJwNmw5emlIdldyK3lkcHpoa1gvMHFTJiN4QTtFYmRtRU1lNTFORFl0SEhUNWkzTlc3bkVNYS9pYS9oYXZvNVg4eHBlZTJuYjloMDdkeW03NzJ2bDYva0dYczlkJiN4QTt2SUczOEcxOEI5L0psVkNNT05UUVRSclVMTU95QTJrclRvTk1ad1lOWld4SzBqR0RSdElrYWVvSlhTTk1sQnVJJiN4QTtFMFpGV1RHaVRTWnRLMnZHRHhjZHh4MHJhMnMwUUdkWUsxVFdTbWVYcS90QVQ5Q3ZuajdhSC9hcnBZdHFobWpVJiN4QTsxNm1JRFRMaWRjdVBIT3g5ZEx4Y2hrblNORlFXcVROYWNTajBla0orOVVTcFhybHEyZlg0RTArT0NRSWNadXRtJiN4QTtrc3NuUlFCdmY0bm40U3dqQXE5YU9sbndIaTc2bFpXVkl5N2YwV09EZDNRQnhzdUVGTXN5NnZCR3ZwVTNSZVhsJiN4QTtjTnpTc21scXNoS0NpYTdPREl2a2ljMTB6YUJ6dGVHc1F3WDJTWktrRTBJc1luVWkrUkpyYzBxYnNNU1ZoR1dMJiN4QTt6MlJLeVhxM1I1NmtIU2VYam9tYmFjSlN6di9QaXNaN25VMWtXYUkza3RmTmpFQnFhdVZFaWF5aE1FdGh1UXhWJiN4QTs0cm90ZURGeVFpQ2FyUXVzaXBZaU50R1ltTTdhNHVBTStVL09EL09OOHlmNEp0NDg0bGQ5QXVDcUdnaTZSa1pEJiN4QTtZMEpYOVZrcWlFbjRESkowaE80WGhiWDJ0WmRiS010OE05OHlNbXlaUkxNRTArRklKVUloN0JGcTlHbkI1SUN1JiN4QTtGUWVEMkxsQ3RHaU1hVkc1OFM2QzQyWE9DM0hQUGUydGZkM2xYTXRKVjBvdnpqalRCUUx2WW02Mit2TFZDM3k3JiN4QTtDRGxwaUxRRFl2QUtrNTdpVkprSGVueGRpdGpBNjRxOWZlYllJTjlWN21KSElwclg5MnJPbk9KUndnUFVZRVFaJiN4QTtVc0sybmt3eFl0dlc5RDlHZlViRW5acU95azEzQnVmZlFoYW1vaDZvaGdab0FUZDBRRGNjaEVFWWdsT2d3alRNJiN4QTt3YlB3SXB5SFYrRXRlQnZlZ1hmaGZmZ0FQb1FyOERGY2hTL2hLL2dHdm9YdllBbStoMlZZaFIvaEdseUhHL0E3JiN4QTszSUxicUFiVkl3WHRRVDNvRVBJaVB3cWlVVFNHemlBZDJXZ1d6YUZ6NkhuMEVqcVBMcUNMNkRWMEdYMkVQa1dMJiN4QTthQW45akg1QnY2SHIwaFhwRStrejZYUHBDMmxSK2xwYWtuNlNmcFZ1U0RlbFA2US9wZHZTWDdnSzEyQVpOK0ZtJiN4QTszSWJiOFQ3Y2o0L2djYXpoRk03Z0hNNWpqcC9ETCtDWDhTdjRJcDdIQy9nTi9DWmV3ZGZ3elhJVEpGUjV2RFB3JiN4QTtuNFZ2L1EwM2k1OEs8L2V4aWY6VXNlckNvbW1lbnQ+CiAgICAgICAgIDxleGlmOlBpeGVsWERpbWVuc2lvbj4yNjQ8L2V4aWY6UGl4ZWxYRGltZW5zaW9uPgogICAgICA8L3JkZjpEZXNjcmlwdGlvbj4KICAgPC9yZGY6UkRGPgo8L3g6eG1wbWV0YT4KFXNm0QAADE1JREFUeAHtmnu0V0UVx3mqgAgiUsRDBAkFIwxQwQICsSJNI80UlEWB/VHmSsXKlWQpgZmoV2RZVguNgEyCWKtlZcENJKQsFQ0rQlBEQDQQ8IH2+n50tgyH3+Oc3++c37lwZ6/1vTNnZu89M3vPY8/cX5MmgYIFggWCBYpYoHmR8lDc8CzQRl1qJvyn4XUt9KiEBRqd33rIGDOEnwvThKFCoGwtMEDq3xBeFDpm21TQnqIFGp3fzpHxmKh7hQXCWuF/wg1CoOwssESqsTO4KYNmlkvnVuFZYZ3wpPCY8LjwlPC08JwAzzwhUDwLZO03etFOIErJnfqqB68LTNJJwqnC8+77JaWBsrHAQKm1zYF0t5B2FPEt6bxHeEAwH1ubO1z5fKV3C58RApW3QC38RiSPv7YLR5fvUrYcc6TeJmhL5ee6b8o2CIGyscAvpNYWq6VMjKzoYSm2djYp3z6rhg5xvVn7rY/s91/BfDU2T3t2UuNcLejM71xHvuK+6eQVriwk6VrgA1KHzbnK/dvl+c4iipDaJq0Fro826e6gMFBiC9TCbz3UK4v2dirfLXEvUxS4ULps0kx3eg9T+nHhve47JOlbYLFUsgEPEPyIDV+YH5RNjUZJk/mZNNdTKbVR1V5Rrfz2EQ3tciHtK2dii82UhE2c8xNLB4FKLHCKs/kiJ0xIyb84zQ9EEce4urQSHptNPxtT2vrT6mdD1pOH33K3B6/cNnF6596bxtEBNgaLHmzEP1HG/ED6batIKV3h6V+Tks5aqxmuBn8jnFnrhl17efgtp6G+3WxTJbsEJuQeoZkQKFsLcAqxOVj0YK2dqIwfReCXtE75VtLlvz/UWaMHWXqR+stcZZOoNeXht1qP8YD2iBgwOFh1QG0oyMIC/AgtGj1YO/OUMX+QTrOKKtND5f2hs+yA7dhIu1dpk6TitfBbe3Xqg0LSt78OkhkqDBFaCFHiHWOE0F9oLpSkWap9WtggbBX8CUkZoH6S0JiIRbRMeEj4aEYD50GSCR6NHqy5k5SJRhE4v1ritxDmZ9pPKzKptl+VyC9xY7muEuEKZWrhtynqm/3nAl+tFsr5/kjx/Fjw/wvG7yamCtwOjhKih85zKjtbKEpXqGa+w26lNnFWeuU0errQWIhddZNgttipPGVpU6lTyNrCN9YP0jSiCP+daY01dJCmnJLYhYlebgGlNcSs/XaJOsrBwKbXVmBzYIw/EIoRmzx824TJAnIfEvhhI7LXCkuFXcJ4oauwWaBuhxBrfi92AggNFhorHauBYwPDq8q3TNkY75e+UtGDNcevWpks1peXla9mIbSS/F5PX53yBzvVawDYh1+HclJmSVn77Xh1/jXhdm8QK5RnfOu9Mj/LmOEhWuA/YD7N1IfNHVJ+rgDZb5usjjlflp4RBwKEKEykxkxMNjMePztOmxZKIRsE4Wo5WiAG6wvpjeUEStSPjOgaW4L3YKnqpY5yCmKbNCKsUuPO2m9sDIyFH7JB7QTb0Ne8VXLgnwkqYuxnHVjV5Ouujvp6r/67XnkxvR7726cSSsCT+9U0zg9CrmFCFpFUf+mNEz2Y5fspE40ijrbKhOmh9P7gD/1j+rCFxD27jV+ZUj5rvx2mfhIhzvb6O1F5W5d3eOV+9gl9rPYLvPy9ypv8BK+cK8kMYYrAo2VZ8k+WuWW59zGMU3ajcNW+opArY4H7VR83ejBVP1XGHE16g1UkTJd7emKdHAn1F2JnsXauAZiLZqN1yl8sNBPSoqz9xvWCg2Cg1+FlytuYRnvllj1CGR4z2SAL0VMqNPkuhRjill3pKbo6rpD4cAQdYNcOVN4CSU8h00gUwaZizuakSRpFtJKMnbLoqRPiEm8wPxR6xhVwfPC/IVi/a53+XW0TDVZLtfJbC6+jbBjmc67/xTa7YuPjXcHkWaclyW+4EOMpXuGjXr5clpPsDIFwJVB5C1znWL5ZnnU/jr/qixPsAld6lNIvC1Pdd5xkiJgIY43qLRMj/bR4Pitwd01C28TM43enJEJV8A73ZPcoz8HFqVwt1cpvvP8ZTVCmqfu4RymLvRAVG98wMZt8fSHBJGXcY2x3534SKH0LvE8qcfKiClWf7OTNT/z7tX0CXWxKJks/kvh5pfiTHBwJupUa683SxPhYZHcJ7xbSoDz8xsLeKJi/elUwkFme/PgK5N8R4R7zplP27DulIZO2Be6TQhZmnP9cFGv7Z6qwSUPKoo9LvxejySZ5f+BOjBzX0IZKt6hj9JF/SY9JuZN5+G2kGw9jWlHhePz3h64V6nhLbLD+2sRZElMRO9p5QoeY/HHZuji9n1DaLYbQ4eIZJBB6947BnxeLnf6VRg/WbzvNzF9xowh7zDK5OlNYJuVq+ojAqZzWiVymycTVYyXBuHYLwxNLlxbIy2/3qlvmq0leF29U/vved7Hse1Rh8uuLMI1S+d+K1O1XPFlfpqzcicQddrGwWeABiImDg6qh5hLmhxubBB60Vgj1Arq/JxBuRamlCm4V4P+jsFBgx9wifEpIg9is4mxScdrivxDVRg/Wzv3KmL9Ir7eKEumHVefLxPXZtU7ugRK686xi4yPqZWyXZdCRPPzGYzLvJ4yJiIj3JojNertwGx+OWDvMd9Ywh6XRRGXM33OsMJKu0vdfImUFP2er1JR9siDHvkIW7GNCe2GcgNwfhEqppwSRR89c4UgBOkbAGJT3F6I0RwWvC6O8Cgy4U1jnlVWanS5BNija5y5XDfWTMHqeEE5IAXZiohPsEPBHKWLjN/447w/YEhmzwUWllOdYd5XaZlwPCU1T7kdefhvqxsS45ntjIkqmzF8Pv3RllF8jGD2oDGUAG0VpmAqo+1y0otC3LVAEehRicGW9lTJhCOmhOgEZnFMJtZbQWgEd0UU40ZXzQnuc4NPx+mCS1/uFyp8toOufkfKkn+zYrwnoAnsFIpZKaYEETVdW6TdKdI5T5nGvD2tK8FLFf7RWC9bXXcpzqjVE4jCgnyMy6FxefrN5zLhYBxDRwT8EFr5RZ2VYB+anK13FCK+MOt5nfCIqJurCx039ikL5Ziq0cGZrIQav7AvKP+y+j1D6kkAHpriypAnRCPKvCB0iwkQQXBtoM0pnqQA5rhc3C6cKGLCtcL1gG5iyFVEbSaGbNsAWgUVWCfWVEJuc6coqJYpo53XwHOW/IxAdEkb67eI36qZ7gI+ry0bB5yX/I6Eh0gB1iv5tFpjHaVJefmMMrAWbM5coz1r4lfCC0F0wwt8W4bHgOwlEH88LfxZuF7DPBuFYARojcICuFboIZelEcaAEMEFKEadoa8dwsVJk3hTe5cqSJDx4Wbt3JhEUL4bgemHypHzfJ/QR0qDPSwmGXi9cUIXCqyXr9zOrPCfJuV4/mVBptEUkdZqntyFlL3NjnJlBp/Lymw3li8rgUzYKNgE2h2FClL6kAq7V8DBf8fkygTVJ1HerQB3rg4OB+t8KHYVYZAsdQQwel5aKEZlFcQUifOc7eXT0i9TF+TxPTBsF5H1gSNstlQ10CFuAEJsQnPRQJK7SrE+iQaKFYkT0NEi4VDhZiF4bTlDZhQK6qE9Et4jbFli3mJK9xMfuhtwYJ0O4wt09LnE1QH5HXAHH10JpV5fHECcJhGFLBBsHhggULBAskNAC/cV/l8CmYLvMI8qzsJYLcWmaGJF5RmD34upBKD5RiBIbR+toob4vF9CxrkCdX9RdH7YhoGejQNjF/TNK81SATjaMQMECwQIJLbBF/CwgQIhOKG6RwDjl4xKvn+iwux/39VcF7j0+fU0f6H9RYKH71Fcf1pdufoWXH608EcY1ruxcpSZDSOUTG96Dwi4h2g+fL+SDBYIFiljAFhfpCIEFTH6lQCQQl4g2kGNTGSxsFqYKUfqTCqxNNpEo3akC6mcJfvs8nNYJPK7MFrhWQLxVwL9UIGox6qgMkRH8k60wpMECwQLJLGCLlcU3VHhZeEXoLSShkWL+l4D8a8JtQiHi0XOPQLt3F2JQGRvLdmGbsErgJRa9C4XThCiNV8EGAZ5HHYgakD1DCBQsECxQoQVYjCxYrgMs2heEM4VKiN8FDBLaxhCeIZ6byvD1VP3pQqcyfFQTbRwnDBH6uG8lgYIFggWqtcDhUjBaIApoVa2ymPK/Ft+lMXkDW7BAsEAjssBAjXWn0L4RjTkMNVggWCCGBbgu8F7w1Ri8gSVYIFggRwv8H8PzZssPCHyFAAAAAElFTkSuQmCC;" parent="1" vertex="1">
          <mxGeometry x="160" y="263" width="110" height="15.83" as="geometry" />
        </mxCell>
        <mxCell id="ncCHN4ETq4YkFRPHOsf6-3" value="" style="shape=image;verticalLabelPosition=bottom;labelBackgroundColor=default;verticalAlign=top;aspect=fixed;imageAspect=0;image=data:image/png,iVBORw0KGgoAAAANSUhEUgAAAQgAAAAmCAYAAAA4JwUNAAABW2lDQ1BJQ0MgUHJvZmlsZQAAKJF1kL1Lw1AUxU9qJaKBKjiJQsDFIUpptepYq6hQMNQP/AAhTdtU6MfrS6wIbrq5+A/o5P+gOOmsmyII7urkIBZBS7wvVdsqXrjcH4fzLvcdwNdmMJbzA8gXHJ6YnlCXV1ZV+QEdkCCjByOGabOorsfJgu/ZXJVb8lJdD4pdkd3ya7Hr6OZZfXq83Ff2/vqbqj2Vtk2aH9RBk3EHkDRifcthgneIuzkdRXwg2KrxseBkjU89z0IiRnxF3GlmjRTxPbGWbNCtBs7nNs2vG8T1SrqwOC/2UPdCxwziUBHCKCKYwhiW/vEPe/4YimDYBscGLGTh0NsoKQw5pIlnUYCJIWjeziB1WOT8O7+6xuaA8TLgM+ra+iRw0g8ESnVtgP4TyAAXa8zgxk+qUsVvZ8KhGiscaH1z3Zc+QD4Dqtx13w9dt0oZttwB56VPyc5iK2/hwVsAAAXiZVhJZk1NACoAAAAIAAQBGgAFAAAAAQAAAD4BGwAFAAAAAQAAAEYBKAADAAAAAQACAACHaQAEAAAAAQAAAE4AAAAAAAAAkAAAAAEAAACQAAAAAQADkoYABwAABWkAAAB4oAIABAAAAAEAAAEIoAMABAAAAAEAAAAmAAAAAEFTQ0lJAAAAQUFBRkFuamFiVk5kYkJ0RkVKNjlUZHNrYmVKTDBwODAvYnNTQnhMNlE1SUdHbHgrNGpSMUc1cTRQMmNuVG1MWApyTTlyKzVyem5ibGJKM0dzU1B1QUNrTHd3Rk5wSDRBNFFsQ0VnQ0tvVUNWQUNBSUlvUWlTQ0NvaFFIM3FDK3BEClh4Q3FrRmovVUFycXJrNDNNN3N6ODgwM3M3R01vVHVzczNNVlNiaHF6ZHAxdFNIM0ZMVWQzVExIM01UV1VyclEKQW01bVpVSnVLM2FXYXN4cEJIVHU5YWpzOHF2SGFZN0d2WlZMUDFUWEJHekxZaHk5Sis5ZXY2SHQvZ2ZhT3g3YwpzM2ZmL29jZVB2UlkzOEJUeDArZEhwODRRMmppYkRyRHNrRzNtVFdNbGJwNmw5emlIdldyK3lkcHpoa1gvMHFTCkViZG1FTWU1MU5EWXRISFQ1aTNOVzduRU1hL2lhL2hhdm81WDh4cGVlMm5iOWgwN2R5bTc3MnZsNi9rR1hzOWQKdklHMzhHMThCOS9KbFZDTU9OVFFUUnJVTE1PeUEya3JUb05NWndZTlpXeEswakdEUnRJa2Flb0pYU05NbEJ1SQpFMFpGV1RHaVRTWnRLMnZHRHhjZHh4MHJhMnMwUUdkWUsxVFdTbWVYcS90QVQ5Q3ZuajdhSC9hcnBZdHFobWpVCjE2bUlEVExpZGN1UEhPeDlkTHhjaGtuU05GUVdxVE5hY1NqMGVrSis5VVNwWHJscTJmWDRFMCtPQ1FJY1p1dG0Ka3NzblJRQnZmNG5uNFN3akFxOWFPbG53SGk3NmxaV1ZJeTdmMFdPRGQzUUJ4c3VFRk1zeTZ2Qkd2cFUzUmVYbApjTnpTc21scXNoS0NpYTdPREl2a2ljMTB6YUJ6dGVHc1F3WDJTWktrRTBJc1luVWkrUkpyYzBxYnNNU1ZoR1dMCnoyUkt5WHEzUjU2a0hTZVhqb21iYWNKU3p2L1Bpc1o3blUxa1dhSTNrdGZOakVCcWF1VkVpYXloTUV0aHVReFYKNHJvdGVERnlRaUNhclF1c2lwWWlOdEdZbU03YTR1QU0rVS9PRC9PTjh5ZjRKdDQ4NGxkOUF1Q3FHZ2k2UmtaRApZMEpYOVZrcWlFbjRESkowaE80WGhiWDJ0WmRiS010OE05OHlNbXlaUkxNRTArRklKVUloN0JGcTlHbkI1SUN1CkZRZUQyTGxDdEdpTWFWRzU4UzZDNDJYT0MzSFBQZTJ0ZmQzbFhNdEpWMG92empqVEJRTHZZbTYyK3ZMVkMzeTcKQ0RscGlMUURZdkFLazU3aVZKa0hlbnhkaXRqQTY0cTlmZWJZSU45VjdtSkhJcHJYOTJyT25PSlJ3Z1BVWUVRWgpVc0sybmt3eFl0dlc5RDlHZlViRW5acU95azEzQnVmZlFoYW1vaDZvaGdab0FUZDBRRGNjaEVFWWdsT2d3alRNCndiUHdJcHlIVitFdGVCdmVnWGZoZmZnQVBvUXI4REZjaFMvaEsvZ0d2b1h2WUFtK2gyVlloUi9oR2x5SEcvQTcKM0lMYnFBYlZJd1h0UVQzb0VQSWlQd3FpVVRTR3ppQWQyV2dXemFGejZIbjBFanFQTHFDTDZEVjBHWDJFUGtXTAphQW45akg1QnY2SHIwaFhwRStrejZYUHBDMmxSK2xwYWtuNlNmcFZ1U0RlbFA2US9wZHZTWDdnSzEyQVpOK0ZtCjNJYmI4VDdjajQvZ2NhemhGTTdnSE01ampwL0RMK0NYOFN2NElwN0hDL2dOL0NaZXdkZnd6WElUSkZSNXZEUHcKbjRWdi9RMDNpNThLAJBwfvUAAAAJcEhZcwAAFiUAABYlAUlSJPAAAAhRaVRYdFhNTDpjb20uYWRvYmUueG1wAAAAAAA8eDp4bXBtZXRhIHhtbG5zOng9ImFkb2JlOm5zOm1ldGEvIiB4OnhtcHRrPSJYTVAgQ29yZSA2LjAuMCI+CiAgIDxyZGY6UkRGIHhtbG5zOnJkZj0iaHR0cDovL3d3dy53My5vcmcvMTk5OS8wMi8yMi1yZGYtc3ludGF4LW5zIyI+CiAgICAgIDxyZGY6RGVzY3JpcHRpb24gcmRmOmFib3V0PSIiCiAgICAgICAgICAgIHhtbG5zOnRpZmY9Imh0dHA6Ly9ucy5hZG9iZS5jb20vdGlmZi8xLjAvIgogICAgICAgICAgICB4bWxuczpleGlmPSJodHRwOi8vbnMuYWRvYmUuY29tL2V4aWYvMS4wLyI+CiAgICAgICAgIDx0aWZmOllSZXNvbHV0aW9uPjE0NDwvdGlmZjpZUmVzb2x1dGlvbj4KICAgICAgICAgPHRpZmY6WFJlc29sdXRpb24+MTQ0PC90aWZmOlhSZXNvbHV0aW9uPgogICAgICAgICA8dGlmZjpSZXNvbHV0aW9uVW5pdD4yPC90aWZmOlJlc29sdXRpb25Vbml0PgogICAgICAgICA8ZXhpZjpQaXhlbFlEaW1lbnNpb24+Mzg8L2V4aWY6UGl4ZWxZRGltZW5zaW9uPgogICAgICAgICA8ZXhpZjpVc2VyQ29tbWVudD5BQUFGQW5qYWJWTmRiQnRGRUo2OVRkc2tiZUpMMHA4MC9ic1NCeEw2UTVJR0dseCs0alIxRzVxNFAyY25UbUxYJiN4QTtyTTlyKzVyem5ibGJKM0dzU1B1QUNrTHd3Rk5wSDRBNFFsQ0VnQ0tvVUNWQUNBSUlvUWlTQ0NvaFFIM3FDK3BEJiN4QTtYeENxa0ZqL1VBcnFyazQzTTdzejg4MDNzN0dNb1R1c3MzTVZTYmhxemRwMXRTSDNGTFVkM1RMSDNNVFdVcnJRJiN4QTtBbTVtWlVKdUszYVdhc3hwQkhUdTlhanM4cXZIYVk3R3ZaVkxQMVRYQkd6TFloeTlKKzlldjZIdC9nZmFPeDdjJiN4QTtzM2ZmL29jZVB2UlkzOEJUeDArZEhwODRRMmppYkRyRHNrRzNtVFdNbGJwNmw5emlIdldyK3lkcHpoa1gvMHFTJiN4QTtFYmRtRU1lNTFORFl0SEhUNWkzTlc3bkVNYS9pYS9oYXZvNVg4eHBlZTJuYjloMDdkeW03NzJ2bDYva0dYczlkJiN4QTt2SUczOEcxOEI5L0psVkNNT05UUVRSclVMTU95QTJrclRvTk1ad1lOWld4SzBqR0RSdElrYWVvSlhTTk1sQnVJJiN4QTtFMFpGV1RHaVRTWnRLMnZHRHhjZHh4MHJhMnMwUUdkWUsxVFdTbWVYcS90QVQ5Q3ZuajdhSC9hcnBZdHFobWpVJiN4QTsxNm1JRFRMaWRjdVBIT3g5ZEx4Y2hrblNORlFXcVROYWNTajBla0orOVVTcFhybHEyZlg0RTArT0NRSWNadXRtJiN4QTtrc3NuUlFCdmY0bm40U3dqQXE5YU9sbndIaTc2bFpXVkl5N2YwV09EZDNRQnhzdUVGTXN5NnZCR3ZwVTNSZVhsJiN4QTtjTnpTc21scXNoS0NpYTdPREl2a2ljMTB6YUJ6dGVHc1F3WDJTWktrRTBJc1luVWkrUkpyYzBxYnNNU1ZoR1dMJiN4QTt6MlJLeVhxM1I1NmtIU2VYam9tYmFjSlN6di9QaXNaN25VMWtXYUkza3RmTmpFQnFhdVZFaWF5aE1FdGh1UXhWJiN4QTs0cm90ZURGeVFpQ2FyUXVzaXBZaU50R1ltTTdhNHVBTStVL09EL09OOHlmNEp0NDg0bGQ5QXVDcUdnaTZSa1pEJiN4QTtZMEpYOVZrcWlFbjRESkowaE80WGhiWDJ0WmRiS010OE05OHlNbXlaUkxNRTArRklKVUloN0JGcTlHbkI1SUN1JiN4QTtGUWVEMkxsQ3RHaU1hVkc1OFM2QzQyWE9DM0hQUGUydGZkM2xYTXRKVjBvdnpqalRCUUx2WW02Mit2TFZDM3k3JiN4QTtDRGxwaUxRRFl2QUtrNTdpVkprSGVueGRpdGpBNjRxOWZlYllJTjlWN21KSElwclg5MnJPbk9KUndnUFVZRVFaJiN4QTtVc0sybmt3eFl0dlc5RDlHZlViRW5acU95azEzQnVmZlFoYW1vaDZvaGdab0FUZDBRRGNjaEVFWWdsT2d3alRNJiN4QTt3YlB3SXB5SFYrRXRlQnZlZ1hmaGZmZ0FQb1FyOERGY2hTL2hLL2dHdm9YdllBbStoMlZZaFIvaEdseUhHL0E3JiN4QTszSUxicUFiVkl3WHRRVDNvRVBJaVB3cWlVVFNHemlBZDJXZ1d6YUZ6NkhuMEVqcVBMcUNMNkRWMEdYMkVQa1dMJiN4QTthQW45akg1QnY2SHIwaFhwRStrejZYUHBDMmxSK2xwYWtuNlNmcFZ1U0RlbFA2US9wZHZTWDdnSzEyQVpOK0ZtJiN4QTszSWJiOFQ3Y2o0L2djYXpoRk03Z0hNNWpqcC9ETCtDWDhTdjRJcDdIQy9nTi9DWmV3ZGZ3elhJVEpGUjV2RFB3JiN4QTtuNFZ2L1EwM2k1OEs8L2V4aWY6VXNlckNvbW1lbnQ+CiAgICAgICAgIDxleGlmOlBpeGVsWERpbWVuc2lvbj4yNjQ8L2V4aWY6UGl4ZWxYRGltZW5zaW9uPgogICAgICA8L3JkZjpEZXNjcmlwdGlvbj4KICAgPC9yZGY6UkRGPgo8L3g6eG1wbWV0YT4KFXNm0QAADE1JREFUeAHtmnu0V0UVx3mqgAgiUsRDBAkFIwxQwQICsSJNI80UlEWB/VHmSsXKlWQpgZmoV2RZVguNgEyCWKtlZcENJKQsFQ0rQlBEQDQQ8IH2+n50tgyH3+Oc3++c37lwZ6/1vTNnZu89M3vPY8/cX5MmgYIFggWCBYpYoHmR8lDc8CzQRl1qJvyn4XUt9KiEBRqd33rIGDOEnwvThKFCoGwtMEDq3xBeFDpm21TQnqIFGp3fzpHxmKh7hQXCWuF/wg1CoOwssESqsTO4KYNmlkvnVuFZYZ3wpPCY8LjwlPC08JwAzzwhUDwLZO03etFOIErJnfqqB68LTNJJwqnC8+77JaWBsrHAQKm1zYF0t5B2FPEt6bxHeEAwH1ubO1z5fKV3C58RApW3QC38RiSPv7YLR5fvUrYcc6TeJmhL5ee6b8o2CIGyscAvpNYWq6VMjKzoYSm2djYp3z6rhg5xvVn7rY/s91/BfDU2T3t2UuNcLejM71xHvuK+6eQVriwk6VrgA1KHzbnK/dvl+c4iipDaJq0Fro826e6gMFBiC9TCbz3UK4v2dirfLXEvUxS4ULps0kx3eg9T+nHhve47JOlbYLFUsgEPEPyIDV+YH5RNjUZJk/mZNNdTKbVR1V5Rrfz2EQ3tciHtK2dii82UhE2c8xNLB4FKLHCKs/kiJ0xIyb84zQ9EEce4urQSHptNPxtT2vrT6mdD1pOH33K3B6/cNnF6596bxtEBNgaLHmzEP1HG/ED6batIKV3h6V+Tks5aqxmuBn8jnFnrhl17efgtp6G+3WxTJbsEJuQeoZkQKFsLcAqxOVj0YK2dqIwfReCXtE75VtLlvz/UWaMHWXqR+stcZZOoNeXht1qP8YD2iBgwOFh1QG0oyMIC/AgtGj1YO/OUMX+QTrOKKtND5f2hs+yA7dhIu1dpk6TitfBbe3Xqg0LSt78OkhkqDBFaCFHiHWOE0F9oLpSkWap9WtggbBX8CUkZoH6S0JiIRbRMeEj4aEYD50GSCR6NHqy5k5SJRhE4v1ritxDmZ9pPKzKptl+VyC9xY7muEuEKZWrhtynqm/3nAl+tFsr5/kjx/Fjw/wvG7yamCtwOjhKih85zKjtbKEpXqGa+w26lNnFWeuU0errQWIhddZNgttipPGVpU6lTyNrCN9YP0jSiCP+daY01dJCmnJLYhYlebgGlNcSs/XaJOsrBwKbXVmBzYIw/EIoRmzx824TJAnIfEvhhI7LXCkuFXcJ4oauwWaBuhxBrfi92AggNFhorHauBYwPDq8q3TNkY75e+UtGDNcevWpks1peXla9mIbSS/F5PX53yBzvVawDYh1+HclJmSVn77Xh1/jXhdm8QK5RnfOu9Mj/LmOEhWuA/YD7N1IfNHVJ+rgDZb5usjjlflp4RBwKEKEykxkxMNjMePztOmxZKIRsE4Wo5WiAG6wvpjeUEStSPjOgaW4L3YKnqpY5yCmKbNCKsUuPO2m9sDIyFH7JB7QTb0Ne8VXLgnwkqYuxnHVjV5Ouujvp6r/67XnkxvR7726cSSsCT+9U0zg9CrmFCFpFUf+mNEz2Y5fspE40ijrbKhOmh9P7gD/1j+rCFxD27jV+ZUj5rvx2mfhIhzvb6O1F5W5d3eOV+9gl9rPYLvPy9ypv8BK+cK8kMYYrAo2VZ8k+WuWW59zGMU3ajcNW+opArY4H7VR83ejBVP1XGHE16g1UkTJd7emKdHAn1F2JnsXauAZiLZqN1yl8sNBPSoqz9xvWCg2Cg1+FlytuYRnvllj1CGR4z2SAL0VMqNPkuhRjill3pKbo6rpD4cAQdYNcOVN4CSU8h00gUwaZizuakSRpFtJKMnbLoqRPiEm8wPxR6xhVwfPC/IVi/a53+XW0TDVZLtfJbC6+jbBjmc67/xTa7YuPjXcHkWaclyW+4EOMpXuGjXr5clpPsDIFwJVB5C1znWL5ZnnU/jr/qixPsAld6lNIvC1Pdd5xkiJgIY43qLRMj/bR4Pitwd01C28TM43enJEJV8A73ZPcoz8HFqVwt1cpvvP8ZTVCmqfu4RymLvRAVG98wMZt8fSHBJGXcY2x3534SKH0LvE8qcfKiClWf7OTNT/z7tX0CXWxKJks/kvh5pfiTHBwJupUa683SxPhYZHcJ7xbSoDz8xsLeKJi/elUwkFme/PgK5N8R4R7zplP27DulIZO2Be6TQhZmnP9cFGv7Z6qwSUPKoo9LvxejySZ5f+BOjBzX0IZKt6hj9JF/SY9JuZN5+G2kGw9jWlHhePz3h64V6nhLbLD+2sRZElMRO9p5QoeY/HHZuji9n1DaLYbQ4eIZJBB6947BnxeLnf6VRg/WbzvNzF9xowh7zDK5OlNYJuVq+ojAqZzWiVymycTVYyXBuHYLwxNLlxbIy2/3qlvmq0leF29U/vved7Hse1Rh8uuLMI1S+d+K1O1XPFlfpqzcicQddrGwWeABiImDg6qh5hLmhxubBB60Vgj1Arq/JxBuRamlCm4V4P+jsFBgx9wifEpIg9is4mxScdrivxDVRg/Wzv3KmL9Ir7eKEumHVefLxPXZtU7ugRK686xi4yPqZWyXZdCRPPzGYzLvJ4yJiIj3JojNertwGx+OWDvMd9Ywh6XRRGXM33OsMJKu0vdfImUFP2er1JR9siDHvkIW7GNCe2GcgNwfhEqppwSRR89c4UgBOkbAGJT3F6I0RwWvC6O8Cgy4U1jnlVWanS5BNija5y5XDfWTMHqeEE5IAXZiohPsEPBHKWLjN/447w/YEhmzwUWllOdYd5XaZlwPCU1T7kdefhvqxsS45ntjIkqmzF8Pv3RllF8jGD2oDGUAG0VpmAqo+1y0otC3LVAEehRicGW9lTJhCOmhOgEZnFMJtZbQWgEd0UU40ZXzQnuc4NPx+mCS1/uFyp8toOufkfKkn+zYrwnoAnsFIpZKaYEETVdW6TdKdI5T5nGvD2tK8FLFf7RWC9bXXcpzqjVE4jCgnyMy6FxefrN5zLhYBxDRwT8EFr5RZ2VYB+anK13FCK+MOt5nfCIqJurCx039ikL5Ziq0cGZrIQav7AvKP+y+j1D6kkAHpriypAnRCPKvCB0iwkQQXBtoM0pnqQA5rhc3C6cKGLCtcL1gG5iyFVEbSaGbNsAWgUVWCfWVEJuc6coqJYpo53XwHOW/IxAdEkb67eI36qZ7gI+ry0bB5yX/I6Eh0gB1iv5tFpjHaVJefmMMrAWbM5coz1r4lfCC0F0wwt8W4bHgOwlEH88LfxZuF7DPBuFYARojcICuFboIZelEcaAEMEFKEadoa8dwsVJk3hTe5cqSJDx4Wbt3JhEUL4bgemHypHzfJ/QR0qDPSwmGXi9cUIXCqyXr9zOrPCfJuV4/mVBptEUkdZqntyFlL3NjnJlBp/Lymw3li8rgUzYKNgE2h2FClL6kAq7V8DBf8fkygTVJ1HerQB3rg4OB+t8KHYVYZAsdQQwel5aKEZlFcQUifOc7eXT0i9TF+TxPTBsF5H1gSNstlQ10CFuAEJsQnPRQJK7SrE+iQaKFYkT0NEi4VDhZiF4bTlDZhQK6qE9Et4jbFli3mJK9xMfuhtwYJ0O4wt09LnE1QH5HXAHH10JpV5fHECcJhGFLBBsHhggULBAskNAC/cV/l8CmYLvMI8qzsJYLcWmaGJF5RmD34upBKD5RiBIbR+toob4vF9CxrkCdX9RdH7YhoGejQNjF/TNK81SATjaMQMECwQIJLbBF/CwgQIhOKG6RwDjl4xKvn+iwux/39VcF7j0+fU0f6H9RYKH71Fcf1pdufoWXH608EcY1ruxcpSZDSOUTG96Dwi4h2g+fL+SDBYIFiljAFhfpCIEFTH6lQCQQl4g2kGNTGSxsFqYKUfqTCqxNNpEo3akC6mcJfvs8nNYJPK7MFrhWQLxVwL9UIGox6qgMkRH8k60wpMECwQLJLGCLlcU3VHhZeEXoLSShkWL+l4D8a8JtQiHi0XOPQLt3F2JQGRvLdmGbsErgJRa9C4XThCiNV8EGAZ5HHYgakD1DCBQsECxQoQVYjCxYrgMs2heEM4VKiN8FDBLaxhCeIZ6byvD1VP3pQqcyfFQTbRwnDBH6uG8lgYIFggWqtcDhUjBaIApoVa2ymPK/Ft+lMXkDW7BAsEAjssBAjXWn0L4RjTkMNVggWCCGBbgu8F7w1Ri8gSVYIFggRwv8H8PzZssPCHyFAAAAAElFTkSuQmCC;" parent="1" vertex="1">
          <mxGeometry x="29.5" y="473" width="110" height="15.83" as="geometry" />
        </mxCell>
      </root>
    </mxGraphModel>
  </diagram>
</mxfile>
